HIERARCHY
ROOT Hips
{
	OFFSET 0.000000 1.471914 24.280096
	CHANNELS 6 Xposition Yposition Zposition Xrotation Yrotation Zrotation
	JOINT Spine
	{
		OFFSET 0.000000 0.900110 1.860670
		CHANNELS 6 Xposition Yposition Zposition Xrotation Yrotation Zrotation
		JOINT Spine1
		{
			OFFSET 0.000000 0.400320 2.270309
			CHANNELS 6 Xposition Yposition Zposition Xrotation Yrotation Zrotation
			JOINT Spine2
			{
				OFFSET 0.000000 0.200920 2.296560
				CHANNELS 6 Xposition Yposition Zposition Xrotation Yrotation Zrotation
				JOINT Spine3
				{
					OFFSET 0.000000 0.000000 2.305330
					CHANNELS 6 Xposition Yposition Zposition Xrotation Yrotation Zrotation
					JOINT Neck
					{
						OFFSET 0.000000 -0.864490 6.051487
						CHANNELS 6 Xposition Yposition Zposition Xrotation Yrotation Zrotation
						JOINT Head
						{
							OFFSET 0.000000 -0.550429 3.121674
							CHANNELS 6 Xposition Yposition Zposition Xrotation Yrotation Zrotation
							End Site
							{
								OFFSET 0.000000 0.000000 3.731750
							}
						}
					}
					JOINT RightShoulder
					{
						OFFSET -0.788280 -1.313800 4.256718
						CHANNELS 6 Xposition Yposition Zposition Xrotation Yrotation Zrotation
						JOINT RightArm
						{
							OFFSET -3.915130 0.000000 0.000000
							CHANNELS 6 Xposition Yposition Zposition Xrotation Yrotation Zrotation
							JOINT RightForeArm
							{
								OFFSET -6.914910 0.000000 0.000000
								CHANNELS 6 Xposition Yposition Zposition Xrotation Yrotation Zrotation
								JOINT RightHand
								{
									OFFSET -6.096219 0.000000 0.000000
									CHANNELS 6 Xposition Yposition Zposition Xrotation Yrotation Zrotation
									JOINT RightHandEnd
									{
										OFFSET -1.749950 0.000000 0.000000
										CHANNELS 6 Xposition Yposition Zposition Xrotation Yrotation Zrotation
										End Site
										{
											OFFSET -1.749950 0.000000 0.000000
										}
									}
									JOINT RightHandThumb1
									{
										OFFSET -0.699980 -1.166630 -0.466648
										CHANNELS 6 Xposition Yposition Zposition Xrotation Yrotation Zrotation
										End Site
										{
											OFFSET -1.690319 -0.452920 0.000000
										}
									}
								}
							}
						}
					}
					JOINT LeftShoulder
					{
						OFFSET 0.788280 -1.313800 4.256718
						CHANNELS 6 Xposition Yposition Zposition Xrotation Yrotation Zrotation
						JOINT LeftArm
						{
							OFFSET 3.915130 0.000000 0.000000
							CHANNELS 6 Xposition Yposition Zposition Xrotation Yrotation Zrotation
							JOINT LeftForeArm
							{
								OFFSET 6.914910 0.000000 0.000000
								CHANNELS 6 Xposition Yposition Zposition Xrotation Yrotation Zrotation
								JOINT LeftHand
								{
									OFFSET 6.096219 0.000000 0.000000
									CHANNELS 6 Xposition Yposition Zposition Xrotation Yrotation Zrotation
									JOINT LeftHandEnd
									{
										OFFSET 1.749950 0.000000 0.000000
										CHANNELS 6 Xposition Yposition Zposition Xrotation Yrotation Zrotation
										End Site
										{
											OFFSET 1.749950 0.000000 0.000000
										}
									}
									JOINT LeftHandThumb1
									{
										OFFSET 0.699980 -1.166630 -0.466648
										CHANNELS 6 Xposition Yposition Zposition Xrotation Yrotation Zrotation
										End Site
										{
											OFFSET 1.690319 -0.452920 0.000000
										}
									}
								}
							}
						}
					}
				}
			}
		}
	}
	JOINT RightUpLeg
	{
		OFFSET -2.338570 -0.252550 -0.551512
		CHANNELS 6 Xposition Yposition Zposition Xrotation Yrotation Zrotation
		JOINT RightLeg
		{
			OFFSET 0.000000 0.000000 -10.744959
			CHANNELS 6 Xposition Yposition Zposition Xrotation Yrotation Zrotation
			JOINT RightFoot
			{
				OFFSET 0.000000 -0.000001 -10.930849
				CHANNELS 6 Xposition Yposition Zposition Xrotation Yrotation Zrotation
				JOINT RightToeBase
				{
					OFFSET 0.000000 -4.087269 -1.487650
					CHANNELS 6 Xposition Yposition Zposition Xrotation Yrotation Zrotation
					End Site
					{
						OFFSET 0.000000 -1.891870 0.000000
					}
				}
			}
		}
	}
	JOINT LeftUpLeg
	{
		OFFSET 2.338570 -0.252550 -0.551512
		CHANNELS 6 Xposition Yposition Zposition Xrotation Yrotation Zrotation
		JOINT LeftLeg
		{
			OFFSET 0.000000 0.000000 -10.744959
			CHANNELS 6 Xposition Yposition Zposition Xrotation Yrotation Zrotation
			JOINT LeftFoot
			{
				OFFSET 0.000000 -0.000001 -10.930849
				CHANNELS 6 Xposition Yposition Zposition Xrotation Yrotation Zrotation
				JOINT LeftToeBase
				{
					OFFSET 0.000000 -4.087269 -1.487650
					CHANNELS 6 Xposition Yposition Zposition Xrotation Yrotation Zrotation
					End Site
					{
						OFFSET 0.000000 -1.891870 0.000000
					}
				}
			}
		}
	}
}
MOTION
Frames: 7
Frame Time: 0.041667
0.000132 26.613174 39.072815 0.324095 2.631204 -34.928993 0.000001 0.900103 1.860650 24.409416 -3.964234 -0.325770 0.000004 0.400322 2.270322 -0.430000 -2.973799 0.051100 0.000000 0.200920 2.296562 0.914103 3.358496 10.607990 -0.000006 0.000016 2.305326 -0.542939 -0.290059 -15.246869 0.000001 -0.864497 6.051463 -2.508169 0.297359 -174.151615 -0.000005 -0.550426 3.121691 3.770705 0.771005 -17.870790 -0.788278 -1.313808 4.256704 145.264545 46.887801 16.106343 -3.915128 0.000017 0.000001 -3.667943 -8.252606 2.894099 -6.914909 0.000007 -0.000010 4.119150 8.038060 -70.683422 -6.096227 0.000007 -0.000002 0.000084 0.000153 0.000021 -1.749950 0.000009 -0.000003 -0.000003 -0.000002 0.000000 -0.699981 -1.166630 -0.466648 -0.000001 0.000000 0.000002 0.788296 -1.313805 4.256699 147.357766 -44.190661 -11.367738 3.915143 0.000001 -0.000009 -19.790190 14.439459 1.928235 6.914905 0.000006 -0.000001 19.935290 -14.234387 117.350040 6.096233 0.000010 -0.000007 0.000099 -0.000153 -0.000022 1.749956 -0.000009 -0.000006 0.000000 0.000003 0.000000 0.699981 -1.166607 -0.466667 0.000000 0.000001 0.000006 -2.338564 -0.252539 -0.551508 -0.422254 4.449746 0.006606 0.000009 0.000001 -10.744963 30.130464 -13.880753 1.878552 0.000001 0.000000 -10.930837 -0.000007 0.000001 -0.000005 -0.000011 -4.087270 -1.487634 4.691005 0.000001 -0.000003 2.338569 -0.252552 -0.551508 -8.584760 -4.214879 0.119075 -0.000017 -0.000016 -10.744945 54.923733 6.443743 -4.103753 0.000001 -0.000001 -10.930850 0.000003 -0.000011 0.000009 0.000008 -4.087261 -1.487647 -2.694005 0.000001 -0.000003 
0.000138 26.613195 39.072922 1.366516 1.427134 -35.373628 0.000002 0.900104 1.860651 23.313039 -4.438560 -0.568112 0.000004 0.400318 2.270325 -0.415305 -2.954197 0.053002 0.000002 0.200917 2.296560 0.898007 3.322696 10.590801 -0.000004 0.000021 2.305327 -0.538465 -0.274557 -14.370079 -0.000002 -0.864491 6.051474 -3.845444 0.544036 -176.527277 -0.000004 -0.550422 3.121672 3.746702 0.789991 -17.836998 -0.788279 -1.313802 4.256709 145.553449 42.771956 13.665006 -3.915120 0.000014 0.000006 -3.618981 -8.122673 2.734959 -6.914912 0.000007 -0.000007 4.039851 7.922792 -72.987763 -6.096223 0.000006 -0.000007 0.000088 0.000155 0.000024 -1.749948 0.000006 -0.000011 -0.000001 -0.000002 -0.000001 -0.699977 -1.166629 -0.466655 -0.000001 -0.000001 0.000001 0.788295 -1.313800 4.256704 150.832133 -41.177213 -8.408940 3.915129 -0.000002 0.000001 -19.655814 14.239269 1.889050 6.914914 0.000009 0.000007 19.795761 -14.040132 113.191145 6.096235 0.000003 -0.000004 0.000094 -0.000149 -0.000028 1.749948 -0.000019 0.000008 0.000002 0.000009 0.000001 0.699974 -1.166619 -0.466656 -0.000002 0.000003 0.000002 -2.338561 -0.252541 -0.551510 -2.855382 5.229229 0.071877 0.000009 -0.000002 -10.744964 32.806915 -14.050310 2.105711 0.000003 -0.000000 -10.930835 -0.000007 -0.000005 -0.000009 -0.000010 -4.087266 -1.487636 4.602013 0.000004 -0.000006 2.338571 -0.252553 -0.551510 -11.880811 -2.713768 0.296843 -0.000016 -0.000016 -10.744949 58.953439 3.658683 -3.537088 -0.000002 0.000007 -10.930847 0.000002 -0.000008 0.000014 0.000008 -4.087263 -1.487653 -2.618596 -0.000003 -0.000000 
0.000093 26.613245 39.073036 2.069178 -0.636549 -36.188053 -0.000000 0.900107 1.860646 21.726500 -3.461343 -1.128107 0.000003 0.400318 2.270320 -0.400302 -2.918101 0.059209 -0.000000 0.200924 2.296558 0.870200 3.255803 10.566911 -0.000003 0.000017 2.305326 -0.519903 -0.246931 -13.496963 -0.000003 -0.864491 6.051482 -4.508382 0.296641 -176.405659 -0.000006 -0.550423 3.121682 3.768694 0.827301 -17.771099 -0.788278 -1.313804 4.256713 147.006845 40.720416 7.488135 -3.915129 0.000014 0.000008 -3.566567 -7.991810 2.559884 -6.914914 0.000005 -0.000003 3.955589 7.807522 -70.105478 -6.096223 0.000005 0.000000 0.000082 0.000150 0.000026 -1.749951 0.000010 -0.000003 -0.000000 -0.000003 -0.000003 -0.699979 -1.166626 -0.466648 0.000002 0.000001 -0.000001 0.788293 -1.313800 4.256713 151.204583 -39.250515 -6.659106 3.915134 0.000003 0.000001 -19.617065 14.085076 1.912421 6.914910 0.000007 -0.000011 19.742534 -13.905037 95.897038 6.096236 0.000010 -0.000007 0.000100 -0.000148 -0.000029 1.749951 -0.000015 -0.000000 0.000003 0.000003 -0.000003 0.699980 -1.166614 -0.466664 0.000000 0.000001 -0.000001 -2.338566 -0.252538 -0.551508 -5.937663 7.875742 0.314277 0.000009 -0.000003 -10.744970 34.903223 -15.445390 2.846284 0.000002 -0.000001 -10.930835 -0.000002 -0.000004 -0.000008 -0.000009 -4.087266 -1.487637 4.523505 0.000001 -0.000000 2.338570 -0.252553 -0.551508 -14.455436 -0.432450 0.760357 -0.000017 -0.000016 -10.744945 61.217708 1.516438 -2.966216 -0.000002 0.000003 -10.930844 0.000000 -0.000006 0.000008 0.000009 -4.087260 -1.487648 -2.504396 -0.000000 -0.000001 
0.000083 26.613276 39.073158 2.450636 -2.876594 -37.307552 -0.000005 0.900108 1.860655 20.713664 -1.830973 -1.494870 0.000003 0.400317 2.270323 -0.382506 -2.905402 0.057803 0.000001 0.200924 2.296561 0.829303 3.195805 10.521999 -0.000003 0.000021 2.305329 -0.488489 -0.205002 -11.589106 -0.000001 -0.864493 6.051469 -6.137065 0.189836 -176.638910 -0.000004 -0.550424 3.121676 3.878101 0.868896 -17.685603 -0.788278 -1.313803 4.256712 150.329253 36.866677 2.051334 -3.915124 0.000017 0.000004 -3.517687 -7.870134 2.407283 -6.914915 0.000003 -0.000009 3.879191 7.699220 -66.455097 -6.096224 0.000007 -0.000001 0.000088 0.000152 0.000022 -1.749950 0.000006 0.000006 0.000000 0.000000 -0.000004 -0.699980 -1.166630 -0.466645 0.000002 -0.000000 -0.000002 0.788296 -1.313799 4.256704 166.751583 -38.523172 -2.626356 3.915130 -0.000004 -0.000001 -19.665759 14.012312 1.999629 6.914908 0.000009 0.000003 19.768745 -13.863588 74.230489 6.096236 0.000007 -0.000007 0.000100 -0.000148 -0.000027 1.749954 -0.000020 0.000003 -0.000001 0.000005 0.000001 0.699979 -1.166621 -0.466656 0.000002 0.000002 0.000001 -2.338569 -0.252537 -0.551506 -8.128153 10.620759 0.597439 0.000009 -0.000001 -10.744963 36.537626 -15.138739 3.907633 0.000001 -0.000001 -10.930835 -0.000007 0.000000 -0.000008 -0.000008 -4.087264 -1.487635 4.473107 -0.000000 -0.000005 2.338565 -0.252549 -0.551505 -16.997554 1.767445 1.234159 -0.000017 -0.000019 -10.744947 61.701976 1.449236 -2.004865 -0.000002 0.000003 -10.930852 0.000009 -0.000006 0.000011 0.000008 -4.087265 -1.487653 -2.357194 0.000001 0.000003 
0.000069 26.613310 39.073227 2.513019 -4.995367 -37.999645 0.000000 0.900109 1.860651 19.964482 0.880204 -1.643903 0.000002 0.400317 2.270310 -0.374793 -2.895400 0.054298 0.000002 0.200925 2.296565 0.796704 3.124396 10.441895 -0.000004 0.000020 2.305326 -0.452821 -0.149745 -9.236366 -0.000003 -0.864495 6.051461 -7.836124 -1.130927 -179.462879 -0.000006 -0.550425 3.121686 4.021305 0.883801 -17.611906 -0.788282 -1.313805 4.256701 154.864608 35.151152 -5.695828 -3.915126 0.000015 0.000009 -3.451854 -7.772664 2.292073 -6.914915 0.000001 -0.000011 3.792536 7.613013 -61.504952 -6.096224 0.000005 -0.000015 0.000082 0.000149 0.000028 -1.749951 0.000010 -0.000002 0.000003 0.000003 0.000000 -0.699982 -1.166628 -0.466644 0.000002 0.000002 -0.000001 0.788294 -1.313803 4.256695 178.232830 -43.668364 0.237573 3.915137 -0.000002 -0.000000 -19.693886 13.944024 2.119999 6.914908 0.000004 -0.000008 19.766515 -13.838694 47.652020 6.096230 0.000006 -0.000006 0.000096 -0.000146 -0.000029 1.749951 -0.000015 0.000000 0.000003 0.000003 0.000000 0.699974 -1.166614 -0.466662 0.000002 0.000003 0.000001 -2.338565 -0.252538 -0.551512 -9.800992 13.880799 0.827394 0.000009 -0.000001 -10.744961 36.428558 -15.767555 5.483378 0.000001 0.000001 -10.930835 -0.000005 -0.000002 -0.000004 -0.000010 -4.087268 -1.487635 4.433603 0.000004 -0.000001 2.338571 -0.252552 -0.551510 -19.383763 4.099983 1.599375 -0.000016 -0.000017 -10.744953 58.740399 0.139899 -0.392882 0.000001 0.000004 -10.930848 0.000005 -0.000008 0.000007 0.000007 -4.087262 -1.487654 -2.339903 -0.000000 0.000002 
0.000091 26.613291 39.073204 1.476143 -5.933213 -38.630809 -0.000001 0.900113 1.860651 20.463032 3.916488 -1.759628 0.000001 0.400316 2.270318 -0.362505 -2.886093 0.048798 -0.000001 0.200922 2.296560 0.761507 3.056401 10.343405 -0.000006 0.000019 2.305322 -0.419823 -0.096796 -7.973477 -0.000001 -0.864489 6.051471 -9.189142 -1.831965 -182.022246 -0.000004 -0.550427 3.121681 4.112503 0.877297 -17.564011 -0.788276 -1.313799 4.256711 158.208437 36.079518 -10.132802 -3.915126 0.000013 -0.000005 -3.402668 -7.730767 2.220383 -6.914912 0.000007 -0.000013 3.731415 7.578284 -56.274939 -6.096226 0.000002 -0.000008 0.000082 0.000152 0.000026 -1.749950 0.000009 -0.000011 0.000003 0.000000 -0.000006 -0.699981 -1.166626 -0.466661 0.000002 -0.000003 -0.000001 0.788295 -1.313797 4.256703 196.223849 -43.686518 13.408673 3.915133 0.000001 0.000002 -19.662626 13.842933 2.228767 6.914915 0.000007 -0.000002 19.704650 -13.781816 36.810403 6.096241 0.000007 -0.000006 0.000094 -0.000155 -0.000026 1.749959 -0.000015 0.000004 0.000004 0.000001 -0.000001 0.699980 -1.166617 -0.466664 -0.000002 0.000004 -0.000002 -2.338564 -0.252534 -0.551508 -10.243683 16.004387 0.910842 0.000009 -0.000004 -10.744963 36.992800 -16.419512 6.689336 0.000002 -0.000002 -10.930835 -0.000002 0.000001 -0.000004 -0.000010 -4.087269 -1.487635 4.409008 0.000001 -0.000004 2.338570 -0.252547 -0.551509 -20.543768 5.903188 1.771295 -0.000016 -0.000016 -10.744953 54.244331 -0.800392 0.943111 -0.000002 0.000002 -10.930851 0.000007 -0.000008 0.000007 0.000008 -4.087265 -1.487653 -2.422003 0.000001 0.000000 
0.000102 26.613277 39.073177 0.068997 -6.422693 -37.683311 0.000002 0.900108 1.860653 23.167506 7.595541 -2.274131 0.000003 0.400313 2.270327 -0.343095 -2.870701 0.045697 -0.000000 0.200928 2.296556 0.712805 2.990809 10.254514 -0.000004 0.000015 2.305324 -0.382142 -0.053191 -8.138523 -0.000004 -0.864493 6.051466 -10.847725 -3.925518 -183.057826 -0.000004 -0.550424 3.121686 4.141899 0.894399 -17.531006 -0.788276 -1.313805 4.256705 160.357392 41.653051 -13.192959 -3.915124 0.000015 -0.000009 -3.439102 -7.736259 2.200039 -6.914912 0.000005 -0.000014 3.765688 7.583394 -50.271456 -6.096224 0.000008 -0.000017 0.000095 0.000146 0.000023 -1.749951 0.000012 -0.000004 0.000002 -0.000001 -0.000002 -0.699981 -1.166626 -0.466651 0.000000 0.000002 0.000001 0.788296 -1.313802 4.256706 194.535372 -46.512314 16.886524 3.915126 -0.000004 0.000005 -19.622251 13.753818 2.291745 6.914909 0.000003 -0.000001 19.644773 -13.720947 32.506496 6.096235 0.000005 -0.000002 0.000098 -0.000150 -0.000032 1.749949 -0.000014 -0.000001 0.000001 0.000006 -0.000002 0.699977 -1.166615 -0.466663 0.000002 0.000004 -0.000001 -2.338565 -0.252536 -0.551510 -9.801412 17.947546 1.005026 0.000007 -0.000001 -10.744964 37.461808 -17.331798 7.488848 0.000005 -0.000002 -10.930836 0.000003 0.000005 -0.000008 -0.000011 -4.087266 -1.487636 4.421800 0.000002 -0.000004 2.338571 -0.252551 -0.551505 -21.317092 7.212115 2.105832 -0.000015 -0.000013 -10.744952 48.875266 -2.566114 1.355773 0.000000 0.000002 -10.930849 0.000007 -0.000009 0.000006 0.000009 -4.087262 -1.487651 -2.335404 0.000002 -0.000002 
